<svg width="19" height="24" viewBox="0 0 19 24" fill="none" xmlns="http://www.w3.org/2000/svg">
<path d="M2.33334 23.6667C1.69167 23.6667 1.14217 23.438 0.684835 22.9807C0.227502 22.5234 -0.000775797 21.9743 1.98076e-06 21.3334V7.33337C1.98076e-06 6.69171 0.228668 6.14221 0.686002 5.68487C1.14333 5.22754 1.69245 4.99926 2.33334 5.00004H4.66667C4.66667 3.71671 5.12361 2.6181 6.0375 1.70421C6.95139 0.790318 8.05 0.333374 9.33333 0.333374C10.6167 0.333374 11.7153 0.790318 12.6292 1.70421C13.5431 2.6181 14 3.71671 14 5.00004H16.3333C16.975 5.00004 17.5245 5.22871 17.9818 5.68604C18.4392 6.14337 18.6674 6.69248 18.6667 7.33337V21.3334C18.6667 21.975 18.438 22.5245 17.9807 22.9819C17.5233 23.4392 16.9742 23.6675 16.3333 23.6667H2.33334ZM2.33334 21.3334H16.3333V7.33337H14V9.66671C14 9.99726 13.888 10.2745 13.664 10.4985C13.44 10.7225 13.1631 10.8342 12.8333 10.8334C12.5028 10.8334 12.2255 10.7214 12.0015 10.4974C11.7775 10.2734 11.6659 9.99648 11.6667 9.66671V7.33337H7V9.66671C7 9.99726 6.888 10.2745 6.664 10.4985C6.44 10.7225 6.16311 10.8342 5.83334 10.8334C5.50278 10.8334 5.2255 10.7214 5.0015 10.4974C4.7775 10.2734 4.66589 9.99648 4.66667 9.66671V7.33337H2.33334V21.3334ZM7 5.00004H11.6667C11.6667 4.35837 11.438 3.80887 10.9807 3.35154C10.5233 2.89421 9.97422 2.66593 9.33333 2.66671C8.69167 2.66671 8.14217 2.89537 7.68483 3.35271C7.2275 3.81004 6.99922 4.35915 7 5.00004Z" fill="white"/>
</svg>

